<svg id="Layer_1" data-name="Layer 1" xmlns="http://www.w3.org/2000/svg" viewBox="0 0 652.89 311.86"><defs><style>.cls-1,.cls-2,.cls-4{fill:none;}.cls-1,.cls-2{stroke:#00aeef;}.cls-1,.cls-2,.cls-3,.cls-4,.cls-5{stroke-miterlimit:10;}.cls-1{stroke-width:18px;}.cls-2,.cls-5{stroke-width:8px;}.cls-3{fill:#161616;stroke-width:15px;}.cls-3,.cls-4,.cls-5{stroke:#353535;}.cls-4{stroke-width:10px;}.cls-5,.cls-6{fill:#353535;}.cls-7{fill:#00aeef;}</style></defs><title>USC Logo (New)</title><path class="cls-1" d="M343.24,350.15c-3.27-6.86-.91-30.86,7.65-44.56,10.72-17.14,35.58-26.77,53.73-26.77,16.25,0,34.44,5.9,46.52,15.47,12.73,10.09,21.66,27.4,22.19,49.11.48,19.49-9.08,27.16-21.17,45.79-9.15,14.1-14.51,38.95-14.65,57.95" transform="translate(-318.59 -218.78)"/><path class="cls-2" d="M397,447.49c-.08-4.43.47-18.38-3.26-32.69-2.71-10.41-11.74-43.46-13.89-41.51-5.8,5.26,17.29,13.4,14.74,15.25s.93-25.2-3.86-22.53c-5.08,2.83,13.7,20.59,10.55,21s10.11-23,4.31-23.45c-8-.56,5.49,24.07,2.55,23.18s17.39-18.33,11.59-21.16S418,389.55,415,387.92s21.63-11.1,15.26-15.44c-2.16-1.47-11,32.57-12.82,42.31-2.12,11.17-2.77,29-2.8,32.39" transform="translate(-318.59 -218.78)"/><line class="cls-3" x1="5.58" y1="29.09" x2="26.98" y2="52.9"/><line class="cls-3" x1="52.96" y1="3.4" x2="64.12" y2="34.47"/><line class="cls-3" x1="167.57" y1="28.23" x2="146.17" y2="52.04"/><line class="cls-3" x1="118.19" y1="2.53" x2="107.03" y2="33.61"/><line class="cls-4" x1="40.52" y1="238.99" x2="133.88" y2="238.99"/><line class="cls-4" x1="44.82" y1="253.28" x2="129.83" y2="253.28"/><line class="cls-4" x1="54.03" y1="267.59" x2="121.91" y2="267.59"/><path class="cls-5" d="M384.58,500.54h43.51s.47,26.18-21.21,26.1C383.46,526.56,384.58,500.54,384.58,500.54Z" transform="translate(-318.59 -218.78)"/><path class="cls-6" d="M578.75,282.21a.62.62,0,0,1,.7.7v34.26c0,.51-.24.75-.7.75h-3.6a2.21,2.21,0,0,1-2-1L556.3,291.73v25.44c0,.51-.24.75-.7.75H551c-.47,0-.7-.24-.7-.75V282.91a.62.62,0,0,1,.7-.7h3.87c1.68.05,2,.28,2.8,1.45l15.82,23.48V282.91a.62.62,0,0,1,.7-.7Z" transform="translate(-318.59 -218.78)"/><path class="cls-6" d="M618.94,282.21a.62.62,0,0,1,.7.7v17.22c0,7.47-.66,11.58-2.9,14.43s-5.51,3.59-11.43,3.59-9.2-.79-11.44-3.59-2.89-7-2.89-14.43V282.91a.62.62,0,0,1,.7-.7h4.62a.62.62,0,0,1,.7.7v17.22c0,5.09.56,8.5,1.63,10.23s3.36,2.56,6.68,2.56,5.55-.84,6.67-2.56,1.68-5.14,1.68-10.23V282.91c0-.56.14-.7.7-.7Z" transform="translate(-318.59 -218.78)"/><path class="cls-6" d="M652,282.77c.52.09.75.33.75.75v2.89c0,.51-.23.79-.7.79H641.25c-3.5,0-5.23,1.22-5.23,3.6v.75c0,2.05.75,3.17,3.13,4.15l9.47,3.78c4.34,1.73,5.88,4.11,5.88,8.73v1.45c0,3.36-1.26,5.64-3.73,6.9s-5.13,1.59-9.1,1.59a79.08,79.08,0,0,1-11.48-.84.78.78,0,0,1-.66-.84v-2.8a.66.66,0,0,1,.75-.75h13c3.46,0,5.18-1.16,5.18-3.5v-.79c0-2.24-.84-3.41-3.45-4.48l-10.08-4c-3.69-1.35-5-4-5-8.68v-1.08c0-7,5.18-8.44,12.6-8.44A66.16,66.16,0,0,1,652,282.77Z" transform="translate(-318.59 -218.78)"/><path class="cls-6" d="M700,282.77c.51.09.74.33.74.75v2.89c0,.51-.23.79-.7.79H689.23c-3.5,0-5.23,1.22-5.23,3.6v.75c0,2.05.75,3.17,3.13,4.15l9.48,3.78c4.34,1.73,5.88,4.11,5.88,8.73v1.45c0,3.36-1.26,5.64-3.74,6.9s-5.13,1.59-9.1,1.59a79.18,79.18,0,0,1-11.48-.84.78.78,0,0,1-.66-.84v-2.8a.66.66,0,0,1,.75-.75h13c3.46,0,5.18-1.16,5.18-3.5v-.79c0-2.24-.84-3.41-3.45-4.48l-10.08-4c-3.69-1.35-4.95-4-4.95-8.68v-1.08c0-7,5.18-8.44,12.6-8.44A66.29,66.29,0,0,1,700,282.77Z" transform="translate(-318.59 -218.78)"/><path class="cls-6" d="M735.16,282.21a.62.62,0,0,1,.7.7v3.83a.62.62,0,0,1-.7.7H724.94v29.78a.62.62,0,0,1-.7.7h-4.58a.62.62,0,0,1-.7-.7V287.44H708.79a.62.62,0,0,1-.7-.7v-3.83a.62.62,0,0,1,.7-.7Z" transform="translate(-318.59 -218.78)"/><path class="cls-6" d="M772.46,282.21a.62.62,0,0,1,.7.7v17.22c0,7.47-.66,11.58-2.9,14.43s-5.51,3.59-11.43,3.59-9.2-.79-11.44-3.59-2.89-7-2.89-14.43V282.91a.62.62,0,0,1,.7-.7h4.62a.62.62,0,0,1,.7.7v17.22c0,5.09.56,8.5,1.63,10.23s3.36,2.56,6.68,2.56,5.55-.84,6.67-2.56,1.68-5.14,1.68-10.23V282.91c0-.56.14-.7.7-.7Z" transform="translate(-318.59 -218.78)"/><path class="cls-6" d="M810,286.22c2.29,2.8,3.41,7.43,3.41,13.87s-1.12,11-3.41,13.86-6.06,4.2-11.43,4.2q-7.56,0-13.17-.42c-.56-.05-.7-.09-.7-.61V283c0-.51.14-.6.7-.65,3.32-.23,7.71-.37,13.17-.37S807.7,283.38,810,286.22Zm-19.27,1v25.72h7.84c6.34,0,8.77-3.73,8.77-12.83s-2.57-12.89-9.24-12.89Z" transform="translate(-318.59 -218.78)"/><path class="cls-6" d="M847.23,282.21c.51,0,.75.23.75.7v3.83c0,.46-.24.7-.75.7H830v10.45h15.78a.62.62,0,0,1,.7.7v3.69a.62.62,0,0,1-.7.7H830v9.71h17.27c.51,0,.75.23.75.7v3.83c0,.46-.24.7-.75.7H824.64a.62.62,0,0,1-.7-.7V282.91a.62.62,0,0,1,.7-.7Z" transform="translate(-318.59 -218.78)"/><path class="cls-6" d="M886.91,282.21a.62.62,0,0,1,.7.7v34.26c0,.51-.24.75-.7.75h-3.6a2.21,2.21,0,0,1-2-1l-16.9-25.16v25.44c0,.51-.23.75-.7.75h-4.62c-.46,0-.7-.24-.7-.75V282.91a.62.62,0,0,1,.7-.7H863c1.68.05,2,.28,2.8,1.45l15.82,23.48V282.91a.62.62,0,0,1,.7-.7Z" transform="translate(-318.59 -218.78)"/><path class="cls-6" d="M923.64,282.21a.62.62,0,0,1,.7.7v3.83a.62.62,0,0,1-.7.7H913.42v29.78a.62.62,0,0,1-.7.7h-4.58a.62.62,0,0,1-.7-.7V287.44H897.27a.62.62,0,0,1-.7-.7v-3.83a.62.62,0,0,1,.7-.7Z" transform="translate(-318.59 -218.78)"/><path class="cls-6" d="M953.19,282.77c.51.09.74.33.74.75v2.89c0,.51-.23.79-.7.79H942.45c-3.5,0-5.23,1.22-5.23,3.6v.75c0,2.05.75,3.17,3.13,4.15l9.48,3.78c4.34,1.73,5.88,4.11,5.88,8.73v1.45c0,3.36-1.26,5.64-3.74,6.9s-5.13,1.59-9.1,1.59a79.18,79.18,0,0,1-11.48-.84.78.78,0,0,1-.66-.84v-2.8a.66.66,0,0,1,.75-.75h13c3.46,0,5.19-1.16,5.19-3.5v-.79c0-2.24-.84-3.41-3.46-4.48l-10.08-4c-3.69-1.35-4.95-4-4.95-8.68v-1.08c0-7,5.18-8.44,12.6-8.44A66.17,66.17,0,0,1,953.19,282.77Z" transform="translate(-318.59 -218.78)"/><path class="cls-6" d="M971,282.21c.32,0,.46.14.46.47v.84a1.22,1.22,0,0,1-.23.65l-7.33,11.2a.45.45,0,0,1-.65.19l-1.59-.84c-.23-.14-.28-.33-.14-.65l3.36-11.49a.57.57,0,0,1,.56-.37Z" transform="translate(-318.59 -218.78)"/><path class="cls-7" d="M577.91,338.22a.62.62,0,0,1,.7.7v17.23c0,7.46-.66,11.57-2.9,14.42s-5.5,3.59-11.43,3.59-9.2-.79-11.44-3.59-2.89-7-2.89-14.42V338.92a.62.62,0,0,1,.7-.7h4.62a.62.62,0,0,1,.7.7v17.23c0,5.08.56,8.49,1.63,10.22s3.36,2.56,6.68,2.56,5.55-.84,6.67-2.56,1.68-5.14,1.68-10.22V338.92c0-.56.14-.7.7-.7Z" transform="translate(-318.59 -218.78)"/><path class="cls-7" d="M618.61,338.22a.62.62,0,0,1,.7.7v34.26c0,.52-.23.75-.7.75H615a2.2,2.2,0,0,1-2-1l-16.9-25.16v25.44c0,.52-.24.75-.7.75h-4.62c-.47,0-.7-.23-.7-.75V338.92a.62.62,0,0,1,.7-.7h3.87c1.68,0,2,.28,2.8,1.45l15.83,23.48V338.92a.62.62,0,0,1,.7-.7Z" transform="translate(-318.59 -218.78)"/><path class="cls-7" d="M636.44,338.22a.62.62,0,0,1,.7.7v34.26c0,.52-.23.75-.7.75h-4.57c-.47,0-.7-.23-.7-.75V338.92a.62.62,0,0,1,.7-.7Z" transform="translate(-318.59 -218.78)"/><path class="cls-7" d="M651.66,338.22c.37,0,.46.14.6.75l7.56,28.24c.52,1.68.66,2,1.4,2,.94,0,1.17-.28,1.59-2L670.14,339c.14-.61.23-.75.61-.75h4.76c.51,0,.7.24.56.75l-7.75,29.68q-.92,3.72-2.1,4.63c-.75.6-2.43.88-5,.88s-4-.28-4.76-.88-1.44-2.15-2.14-4.63l-8-29.68c-.14-.51,0-.75.57-.75Z" transform="translate(-318.59 -218.78)"/><path class="cls-7" d="M708.7,338.22c.51,0,.74.24.74.7v3.83c0,.47-.23.7-.74.7H691.42V353.9H707.2a.62.62,0,0,1,.7.7v3.69a.62.62,0,0,1-.7.7H691.42v9.71H708.7c.51,0,.74.23.74.7v3.83c0,.47-.23.7-.74.7H686.1a.62.62,0,0,1-.7-.7V338.92a.62.62,0,0,1,.7-.7Z" transform="translate(-318.59 -218.78)"/><path class="cls-7" d="M742.67,340.32c2,1.54,3,4.67,3,9.29,0,3.59-.56,6.21-1.68,7.8s-3,2.56-5.75,3L746.08,373c.38.51.14.93-.56.93h-4.34a1.89,1.89,0,0,1-1.87-1l-7.7-12.13-5.69,0v12.42c0,.56-.14.7-.7.7H720.6c-.56,0-.7-.14-.7-.7V339c0-.52.14-.61.7-.66,3.31-.23,7-.37,11.15-.37C737.07,338,740.71,338.78,742.67,340.32Zm-16.75,2.9V356h5.27c3.69,0,5.18-.1,6.63-1s1.73-2.34,1.73-5.28c0-2.75-.56-4.53-1.64-5.32s-3.31-1.21-6.72-1.21Z" transform="translate(-318.59 -218.78)"/><path class="cls-7" d="M776.94,338.78c.51.1.74.33.74.75v2.89c0,.52-.23.8-.7.8H766.2c-3.5,0-5.23,1.21-5.23,3.59v.75c0,2.05.75,3.17,3.13,4.15l9.47,3.78c4.35,1.73,5.89,4.11,5.89,8.73v1.45c0,3.36-1.26,5.65-3.74,6.91s-5.13,1.58-9.1,1.58a79.08,79.08,0,0,1-11.48-.84.78.78,0,0,1-.66-.84v-2.8a.66.66,0,0,1,.75-.75h13c3.46,0,5.18-1.16,5.18-3.5v-.79c0-2.24-.84-3.41-3.45-4.48l-10.08-4c-3.69-1.35-4.95-4-4.95-8.68v-1.07c0-7.05,5.18-8.45,12.6-8.45A66.29,66.29,0,0,1,776.94,338.78Z" transform="translate(-318.59 -218.78)"/><path class="cls-7" d="M794.67,338.22a.62.62,0,0,1,.7.7v34.26c0,.52-.23.75-.7.75H790.1c-.47,0-.7-.23-.7-.75V338.92a.62.62,0,0,1,.7-.7Z" transform="translate(-318.59 -218.78)"/><path class="cls-7" d="M831.41,338.22a.62.62,0,0,1,.7.7v3.83a.62.62,0,0,1-.7.7H821.18v29.78a.62.62,0,0,1-.7.7h-4.57a.62.62,0,0,1-.7-.7V343.45H805a.62.62,0,0,1-.7-.7v-3.83a.62.62,0,0,1,.7-.7Z" transform="translate(-318.59 -218.78)"/><path class="cls-7" d="M868.7,338.22c.7,0,.89.33.51,1l-12.78,23.52v10.41c0,.52-.24.75-.7.75h-4.58c-.47,0-.7-.23-.7-.75V362.73l-12.74-23.48c-.38-.7-.19-1,.51-1h5a1.34,1.34,0,0,1,1.26.75l8.92,17.6,8.91-17.6a1.34,1.34,0,0,1,1.26-.75Z" transform="translate(-318.59 -218.78)"/><path class="cls-7" d="M571.09,394.79c.52.1.75.33.75.75v2.89c0,.52-.23.8-.7.8H560.36c-3.5,0-5.23,1.21-5.23,3.59v.75c0,2.05.75,3.17,3.13,4.15l9.47,3.78c4.34,1.73,5.88,4.11,5.88,8.73v1.45c0,3.36-1.26,5.65-3.73,6.91s-5.13,1.58-9.1,1.58a79.32,79.32,0,0,1-11.49-.84.78.78,0,0,1-.65-.84v-2.8c0-.51.24-.74.75-.74h13c3.46,0,5.18-1.17,5.18-3.5v-.8c0-2.24-.84-3.4-3.45-4.48l-10.08-4c-3.69-1.35-4.95-4-4.95-8.68v-1.07c0-7.05,5.18-8.45,12.6-8.45A66.16,66.16,0,0,1,571.09,394.79Z" transform="translate(-318.59 -218.78)"/><path class="cls-7" d="M605.91,394.56a.9.9,0,0,1,.89,1v2.94c0,.52-.23.75-.7.75H597c-3.55,0-5.88.89-7,2.61s-1.58,5.14-1.58,10.22.51,8.59,1.58,10.32,3.41,2.57,7,2.57h9.1a.62.62,0,0,1,.7.7v2.94a.92.92,0,0,1-.89,1,56.56,56.56,0,0,1-8.91.56c-5.93,0-9.38-1-11.67-3.82s-2.94-7.05-2.94-14.29.7-11.39,2.94-14.23S591,394,597,394A53,53,0,0,1,605.91,394.56Z" transform="translate(-318.59 -218.78)"/><path class="cls-7" d="M645.26,394.23a.62.62,0,0,1,.7.7v34.26c0,.52-.23.75-.7.75h-4.62c-.47,0-.7-.23-.7-.75V414.58H622.72v14.61c0,.52-.24.75-.7.75H617.4c-.47,0-.7-.23-.7-.75V394.93a.62.62,0,0,1,.7-.7H622a.62.62,0,0,1,.7.7v14.38h17.22V394.93a.62.62,0,0,1,.7-.7Z" transform="translate(-318.59 -218.78)"/><path class="cls-7" d="M683,397.88c2.28,2.84,3,7,3,14.28s-.7,11.34-3,14.19-5.7,3.82-11.67,3.82-9.39-1-11.67-3.82-3-7.05-3-14.19.7-11.44,3-14.28,5.74-3.88,11.67-3.88S680.73,394.93,683,397.88Zm-18.63,24.5c1.07,1.73,3.41,2.57,7,2.57s5.88-.84,7-2.57,1.68-5.13,1.68-10.22-.56-8.54-1.68-10.27-3.41-2.66-7-2.66-5.89.89-7,2.66-1.63,5.18-1.63,10.27S663.28,420.65,664.35,422.38Z" transform="translate(-318.59 -218.78)"/><path class="cls-7" d="M702,394.23a.62.62,0,0,1,.7.7v29.78h16.15a.62.62,0,0,1,.7.7v3.83a.62.62,0,0,1-.7.7H697.35a.62.62,0,0,1-.7-.7V394.93a.62.62,0,0,1,.7-.7Z" transform="translate(-318.59 -218.78)"/><path class="cls-7" d="M746,394.89c.8.6,1.54,2.1,2.24,4.57l8.08,29.73c.09.52-.09.75-.56.75H751c-.33,0-.52-.23-.65-.75l-2.76-10h-13.3l-2.8,10c-.14.52-.33.75-.61.75H726.1c-.46,0-.65-.23-.56-.75l8.31-29.73c.7-2.43,1.4-3.92,2.19-4.53s2.43-.93,4.91-.93S745.24,394.28,746,394.89ZM739.31,401l-3.59,13.12h10.55L742.77,401c-.52-1.73-.56-1.91-1.82-1.91C739.87,399.09,739.83,399.27,739.31,401Z" transform="translate(-318.59 -218.78)"/><path class="cls-7" d="M788.18,396.33c2,1.55,2.94,4.67,2.94,9.29,0,3.6-.56,6.21-1.68,7.8s-3,2.57-5.74,3l7.89,12.6c.37.51.14.93-.56.93h-4.34a1.89,1.89,0,0,1-1.87-1l-7.7-12.13-5.69.05v12.41c0,.56-.14.7-.7.7H766.1c-.56,0-.7-.14-.7-.7V395c0-.52.14-.61.7-.66,3.32-.23,7-.37,11.16-.37C782.58,394,786.22,394.79,788.18,396.33Zm-16.75,2.9V412h5.27c3.69,0,5.18-.1,6.63-1s1.73-2.34,1.73-5.28c0-2.75-.56-4.52-1.64-5.32s-3.31-1.21-6.72-1.21Z" transform="translate(-318.59 -218.78)"/><path class="cls-7" d="M822.44,394.79c.52.1.75.33.75.75v2.89c0,.52-.23.8-.7.8H811.71c-3.5,0-5.23,1.21-5.23,3.59v.75c0,2.05.75,3.17,3.13,4.15l9.47,3.78c4.34,1.73,5.88,4.11,5.88,8.73v1.45c0,3.36-1.26,5.65-3.73,6.91s-5.14,1.58-9.1,1.58a79.08,79.08,0,0,1-11.48-.84.77.77,0,0,1-.66-.84v-2.8c0-.51.23-.74.75-.74h13c3.46,0,5.18-1.17,5.18-3.5v-.8c0-2.24-.84-3.4-3.45-4.48l-10.08-4c-3.69-1.35-4.95-4-4.95-8.68v-1.07c0-7.05,5.18-8.45,12.6-8.45A66,66,0,0,1,822.44,394.79Z" transform="translate(-318.59 -218.78)"/><path class="cls-7" d="M572.63,450.57a.91.91,0,0,1,.89,1v2.94c0,.52-.23.75-.7.75h-9.1c-3.55,0-5.88.89-7,2.61s-1.58,5.14-1.58,10.23.51,8.58,1.58,10.31,3.41,2.57,7,2.57h9.1a.62.62,0,0,1,.7.7v2.94a.93.93,0,0,1-.89,1,57.8,57.8,0,0,1-8.91.56c-5.93,0-9.38-1-11.67-3.83s-2.94-7.05-2.94-14.28.7-11.39,2.94-14.24,5.69-3.83,11.67-3.83A53,53,0,0,1,572.63,450.57Z" transform="translate(-318.59 -218.78)"/><path class="cls-7" d="M588.74,450.25a.62.62,0,0,1,.7.7v29.78h16.15a.62.62,0,0,1,.7.7v3.82a.62.62,0,0,1-.7.7H584.12a.62.62,0,0,1-.7-.7V451a.62.62,0,0,1,.7-.7Z" transform="translate(-318.59 -218.78)"/><path class="cls-7" d="M640.5,450.25a.62.62,0,0,1,.7.7v17.22c0,7.47-.65,11.58-2.89,14.42s-5.51,3.6-11.44,3.6-9.19-.8-11.44-3.6-2.89-6.95-2.89-14.42V451a.62.62,0,0,1,.7-.7h4.62a.62.62,0,0,1,.7.7v17.22c0,5.09.56,8.49,1.64,10.22s3.36,2.57,6.67,2.57,5.55-.84,6.68-2.57,1.68-5.13,1.68-10.22V451c0-.56.14-.7.7-.7Z" transform="translate(-318.59 -218.78)"/><path class="cls-7" d="M675.46,452.21c2,1.44,3,4,3,7.7,0,4.85-1.31,7.33-4.62,8v.14c4.06.56,5.5,3.5,5.5,8.4,0,3.69-1,6.25-2.89,7.65s-5,2.06-9.24,2.06c-5.46,0-10-.14-13.77-.42-.56,0-.7-.14-.7-.66V451c0-.51.14-.61.7-.65,3.31-.24,7.51-.38,12.51-.38C670.33,450,673.5,450.76,675.46,452.21Zm-16.71,3v10.6H664c3.32,0,5.56-.28,6.68-.89s1.73-2,1.73-4.3c0-4.24-2-5.41-7-5.41Zm0,15.12V481H667c4.53,0,6.3-1.12,6.3-5,0-4.3-2-5.56-6.2-5.56Z" transform="translate(-318.59 -218.78)"/></svg>