<svg id="Layer_1" data-name="Layer 1" xmlns="http://www.w3.org/2000/svg" viewBox="0 0 673.15 311.86"><defs><style>.cls-1,.cls-2,.cls-4{fill:none;}.cls-1,.cls-2{stroke:#00aeef;}.cls-1,.cls-2,.cls-3,.cls-4,.cls-5{stroke-miterlimit:10;}.cls-1{stroke-width:18px;}.cls-2,.cls-5{stroke-width:8px;}.cls-3{fill:#161616;stroke-width:15px;}.cls-3,.cls-4,.cls-5{stroke:#353535;}.cls-4{stroke-width:10px;}.cls-10,.cls-11,.cls-5,.cls-7,.cls-8,.cls-9{fill:#353535;}.cls-6{font-size:46.68px;font-family:UniviaPro-Medium, Univia Pro;letter-spacing:0.1em;}.cls-8{letter-spacing:0.07em;}.cls-12,.cls-13,.cls-9{letter-spacing:0.1em;}.cls-10{letter-spacing:0.08em;}.cls-11{letter-spacing:0.05em;}.cls-13,.cls-15{fill:#00aeef;}.cls-14{letter-spacing:0.04em;}.cls-16{letter-spacing:0.05em;}</style></defs><title>USC Logo</title><path class="cls-1" d="M343.24,350.15c-3.27-6.86-.91-30.86,7.65-44.56,10.72-17.14,35.58-26.77,53.73-26.77,16.25,0,34.44,5.9,46.52,15.47,12.73,10.09,21.66,27.4,22.19,49.11.48,19.49-9.08,27.16-21.17,45.79-9.15,14.1-14.51,38.95-14.65,57.95" transform="translate(-318.59 -218.78)"/><path class="cls-2" d="M397,447.49c-.08-4.43.47-18.38-3.26-32.69-2.71-10.41-11.74-43.46-13.89-41.51-5.8,5.26,17.29,13.4,14.74,15.25s.93-25.2-3.86-22.53c-5.08,2.83,13.7,20.59,10.55,21s10.11-23,4.31-23.45c-8-.56,5.49,24.07,2.55,23.18s17.39-18.33,11.59-21.16S418,389.55,415,387.92s21.63-11.1,15.26-15.44c-2.16-1.47-11,32.57-12.82,42.31-2.12,11.17-2.77,29-2.8,32.39" transform="translate(-318.59 -218.78)"/><line class="cls-3" x1="5.58" y1="29.09" x2="26.98" y2="52.9"/><line class="cls-3" x1="52.96" y1="3.4" x2="64.12" y2="34.47"/><line class="cls-3" x1="167.57" y1="28.23" x2="146.17" y2="52.04"/><line class="cls-3" x1="118.19" y1="2.53" x2="107.03" y2="33.61"/><line class="cls-4" x1="40.52" y1="238.99" x2="133.88" y2="238.99"/><line class="cls-4" x1="44.82" y1="253.28" x2="129.83" y2="253.28"/><line class="cls-4" x1="54.03" y1="267.59" x2="121.91" y2="267.59"/><path class="cls-5" d="M384.58,500.54h43.51s.47,26.18-21.21,26.1C383.46,526.56,384.58,500.54,384.58,500.54Z" transform="translate(-318.59 -218.78)"/><text class="cls-6" transform="translate(228.09 99.13)"><tspan class="cls-7">NUS </tspan><tspan class="cls-8" x="128.87" y="0">S</tspan><tspan class="cls-9" x="160.71" y="0">TUDEN</tspan><tspan class="cls-10" x="349.19" y="0">T</tspan><tspan class="cls-11" x="382.09" y="0">S</tspan><tspan class="cls-9" x="413.18" y="0">’</tspan><tspan class="cls-12" x="430.36" y="0" xml:space="preserve"> </tspan><tspan class="cls-13"><tspan x="0" y="56.01">UNIVERSIT</tspan><tspan class="cls-14" x="290.79" y="56.01">Y</tspan></tspan><tspan class="cls-15"><tspan x="0" y="112.02">SCHOLARS</tspan><tspan x="0" y="168.04">C</tspan><tspan class="cls-16" x="33.14" y="168.04">L</tspan><tspan class="cls-12" x="62.59" y="168.04">UB</tspan></tspan></text></svg>